<?xml version="1.0" standalone="no"?>
<!DOCTYPE svg PUBLIC "-//W3C//DTD SVG 20010904//EN"
 "http://www.w3.org/TR/2001/REC-SVG-20010904/DTD/svg10.dtd">
<svg version="1.0" xmlns="http://www.w3.org/2000/svg"
 width="260.000000pt" height="260.000000pt" viewBox="0 0 260.000000 260.000000"
 preserveAspectRatio="xMidYMid meet">
<metadata>
Created by potrace 1.14, written by Peter Selinger 2001-2017
</metadata>
<g transform="translate(0.000000,260.000000) scale(0.100000,-0.100000)"
fill="#000000" stroke="none">
<path d="M335 2562 c-121 -42 -223 -134 -278 -249 l-32 -68 0 -945 0 -945 32
-68 c45 -95 127 -178 222 -225 l75 -37 946 0 946 0 75 37 c95 47 177 130 222
225 l32 68 0 945 0 945 -22 55 c-46 111 -142 207 -253 253 l-55 22 -930 2
c-862 2 -934 1 -980 -15z m1840 -62 c134 -20 241 -94 291 -204 42 -92 45 -170
42 -1056 l-3 -835 -23 -58 c-44 -109 -120 -185 -229 -229 l-58 -23 -895 0
-895 0 -58 23 c-109 44 -185 120 -229 229 l-23 58 -3 834 c-2 489 1 868 7 914
22 185 150 321 325 347 79 12 1670 11 1751 0z"/>
<path d="M315 2278 c-3 -7 -4 -157 -3 -333 l3 -320 168 -5 168 -5 -25 -50
c-13 -27 -27 -67 -30 -87 -7 -36 -9 -38 -46 -38 l-40 0 0 44 0 45 -47 3 c-27
2 -72 1 -101 0 l-53 -4 3 -46 3 -47 48 -3 47 -3 0 -39 0 -39 -47 -3 -48 -3 -3
-142 -3 -143 143 0 c137 -1 142 -1 113 -17 -16 -9 -46 -29 -66 -44 -33 -26
-44 -29 -113 -29 l-76 0 2 -327 3 -328 333 -3 332 -2 0 80 0 81 43 -3 42 -3 3
-78 3 -78 47 3 47 3 3 43 c3 42 3 42 43 42 l39 0 0 -45 0 -45 50 0 50 0 0 45
0 45 95 0 95 0 0 40 0 41 138 -3 137 -3 2 -35 c1 -19 2 -56 2 -82 l1 -48 50 0
50 0 0 90 0 90 38 0 c62 0 140 28 181 66 21 19 41 34 45 34 3 0 6 -20 6 -45
l0 -45 50 0 50 0 0 95 0 95 -40 0 -40 0 0 45 0 45 40 0 40 0 0 50 0 50 -46 0
-45 0 3 43 c3 42 3 42 46 45 l42 3 0 50 0 49 -45 0 -45 0 0 90 0 90 45 0 45 0
0 95 0 95 -45 0 -45 0 0 44 0 44 -50 4 c-84 5 -149 -2 -152 -18 -2 -8 -12 12
-24 46 l-21 60 169 0 168 0 -2 333 -3 332 -327 3 -328 2 0 -170 c0 -93 -2
-170 -5 -170 -15 0 -85 34 -85 41 0 5 -13 9 -29 9 -24 0 -31 6 -45 40 -9 22
-16 43 -16 45 0 3 20 5 45 5 l45 0 0 101 0 100 -47 -3 -48 -3 -3 -85 c-3 -89
-12 -110 -46 -110 -25 0 -132 -33 -143 -44 -4 -4 -1 -11 7 -16 11 -7 6 -10
-20 -10 -19 0 -44 -3 -56 -6 -20 -5 -20 -2 -16 85 l4 91 -51 0 -51 0 0 -84 c0
-46 -3 -91 -6 -99 -4 -12 0 -14 18 -11 13 3 -4 -6 -37 -18 l-60 -23 -5 165 -5
165 -328 3 c-258 2 -329 0 -332 -10z m565 -245 l-1 -148 -42 -32 -42 -32 -3
139 -3 140 -144 0 -145 0 0 -145 0 -144 141 -3 140 -3 -36 -42 -37 -43 -144 0
-144 0 0 230 0 230 230 0 230 0 0 -147z m1310 -83 l0 -230 -145 0 -145 0 -85
85 -85 85 0 145 0 145 230 0 230 0 0 -230z m-755 -5 c107 -22 225 -85 309
-165 65 -62 146 -177 146 -207 0 -11 -55 -53 -70 -53 -3 0 -18 24 -34 53 -16
28 -59 82 -95 118 -133 133 -323 193 -499 155 -83 -17 -183 -59 -208 -88 -17
-18 -15 -22 74 -111 65 -65 99 -92 116 -92 13 0 22 5 19 11 -3 7 12 13 39 16
81 9 118 -26 50 -46 -18 -5 -32 -14 -32 -20 0 -6 66 -76 146 -156 124 -124
186 -201 172 -216 -2 -2 -82 75 -178 171 -151 151 -208 202 -185 166 5 -10
-41 -6 -95 6 -14 3 -43 6 -65 6 -35 1 -48 9 -116 74 l-77 74 -31 -47 c-17 -26
-31 -51 -31 -56 0 -17 -27 -7 -49 17 l-22 26 33 62 c121 228 416 358 683 302z
m125 -214 c40 -24 70 -53 64 -62 -8 -13 -84 -11 -84 2 0 16 -91 1 -105 -16 -5
-8 -26 -15 -45 -17 -31 -3 -35 0 -35 22 0 29 41 53 88 52 16 0 27 2 23 5 -3 3
5 13 17 23 22 18 35 17 77 -9z m-307 -101 c4 -15 0 -20 -16 -20 -12 0 -32 -3
-44 -6 -18 -5 -23 -2 -23 14 0 20 6 23 66 31 7 0 14 -8 17 -19z m425 -67 c3
-17 -2 -23 -17 -23 -11 0 -26 -9 -34 -21 -13 -17 -19 -19 -36 -10 -25 14 -26
29 -5 59 22 32 87 28 92 -5z m-800 -105 c3 -13 -3 -18 -22 -18 -20 0 -26 -5
-26 -22 0 -13 -5 -30 -10 -38 -8 -12 -10 -12 -10 5 0 11 5 37 11 58 8 31 14
38 32 35 12 -2 23 -11 25 -20z m35 -54 c-15 -24 -17 -25 -24 -8 -12 30 -10 34
16 34 25 0 25 0 8 -26z m881 -47 c8 -29 8 -71 0 -91 -5 -13 -22 -16 -80 -16
-52 0 -75 -4 -81 -14 -4 -8 -25 -17 -46 -21 -34 -7 -39 -5 -44 14 -3 11 -10
21 -16 21 -6 0 -8 2 -5 5 7 7 166 46 193 47 30 2 54 26 48 49 -3 10 -9 19 -14
19 -5 0 -9 4 -9 9 0 18 48 -2 54 -22z m-1214 -84 c0 -38 3 -78 6 -90 6 -23 5
-23 -80 -23 l-86 0 0 45 0 45 45 0 45 0 0 45 c0 45 0 45 35 45 l35 0 0 -67z
m1610 22 l0 -45 -45 0 -45 0 0 -45 0 -45 -46 0 c-38 0 -45 3 -40 16 3 9 6 49
6 90 l0 74 85 0 85 0 0 -45z m-1035 -115 c-3 -5 -23 -10 -43 -10 -28 0 -33 3
-22 10 20 13 73 13 65 0z m565 -77 c0 -27 -3 -34 -11 -26 -7 7 -9 23 -5 37 9
37 16 32 16 -11z m-650 -8 c0 -11 7 -12 32 -4 41 11 98 12 98 1 0 -24 -97 -71
-119 -58 -5 3 -11 -8 -15 -25 l-6 -31 -74 4 c-68 3 -73 2 -65 -14 5 -10 33
-35 62 -57 117 -87 214 -116 359 -108 76 5 99 3 108 -8 28 -34 -170 -52 -280
-26 -79 19 -173 68 -233 122 -49 44 -51 48 -53 102 -2 60 5 67 68 67 17 0 28
6 30 17 3 16 66 44 81 36 4 -2 7 -10 7 -18z m1120 -80 l0 -45 -45 0 c-43 0
-45 -1 -45 -29 0 -17 4 -32 9 -36 20 -12 -16 -69 -50 -80 -61 -21 -132 -26
-153 -10 -18 13 -18 14 0 33 11 11 29 23 41 26 29 9 41 46 19 58 -27 15 -18
30 14 23 l30 -7 0 56 0 56 90 0 90 0 0 -45z m-1532 -50 l21 -44 -25 -20 -26
-20 29 -6 c15 -4 33 -8 38 -9 19 -5 -75 -46 -118 -52 -33 -5 -47 -2 -60 11
-25 25 -21 42 13 49 19 3 30 12 30 23 0 9 12 30 27 45 26 27 26 28 5 28 -28 0
-28 14 1 28 36 17 42 14 65 -33z m1212 -128 c0 -2 -10 -12 -22 -23 l-23 -19
19 23 c18 21 26 27 26 19z m40 -122 c0 -8 -6 -15 -14 -15 -17 0 -28 14 -19 24
12 12 33 6 33 -9z m-1435 -111 c15 -20 25 -46 25 -67 l0 -34 128 -7 c70 -3
155 -9 190 -12 l62 -6 0 -34 0 -34 -230 0 -230 0 1 153 c0 144 1 150 15 113 8
-22 25 -54 39 -72z m570 16 c15 -7 10 -9 -23 -9 -26 -1 -41 3 -37 9 7 12 32
12 60 0z m-167 -27 c-4 -20 -60 -35 -96 -26 -22 5 -22 6 -5 18 20 14 47 22 81
24 17 1 23 -4 20 -16z"/>
<path d="M1818 2003 c-2 -54 -2 -119 0 -145 l3 -48 140 0 139 0 0 145 0 145
-139 0 -140 0 -3 -97z"/>
<path d="M1257 2283 c-9 -8 -7 -111 1 -138 4 -11 12 -29 19 -40 10 -17 14 -18
37 -5 32 16 43 52 27 86 -7 15 -7 23 -1 19 6 -4 10 11 10 39 l0 46 -43 0 c-24
0 -47 -3 -50 -7z"/>
<path d="M2100 360 l0 -50 50 0 50 0 0 50 0 50 -50 0 -50 0 0 -50z"/>
</g>
</svg>
